<?xml version="1.0" encoding="UTF-8"?>
<svg width="48px" height="48px" viewBox="0 0 48 48" version="1.1" xmlns="http://www.w3.org/2000/svg" xmlns:xlink="http://www.w3.org/1999/xlink">
    <!-- Generator: Sketch 50.2 (55047) - http://www.bohemiancoding.com/sketch -->
    <title>Group 10</title>
    <desc>Created with Sketch.</desc>
    <defs></defs>
    <g id="Page-1" stroke="none" stroke-width="1" fill="none" fill-rule="evenodd">
        <g id="inscription" transform="translate(-558.000000, -211.000000)" fill="#5E77FF">
            <g id="Login" transform="translate(528.000000, 181.000000)">
                <g id="Group-8" transform="translate(30.000000, 30.000000)">
                    <g id="Group-9">
                        <g id="Group-10">
                            <circle id="Oval" opacity="0.100000001" cx="24" cy="24" r="24"></circle>
                            <path d="M26.68,27.36 C27.5066708,27.36 28.4133284,27.4799988 29.4,27.72 C30.5200056,28.0000014 31.4266632,28.373331 32.12,28.84 C32.9466708,29.3866694 33.36,29.9999966 33.36,30.68 L33.36,32.36 L20,32.36 L20,30.68 C20,29.9999966 20.4133292,29.3866694 21.24,28.84 C21.9333368,28.373331 22.8399944,28.0000014 23.96,27.72 C24.9466716,27.4799988 25.8533292,27.36 26.68,27.36 Z M19.18,24 L21.68,24 L21.68,25.68 L19.18,25.68 L19.18,28.18 L17.5,28.18 L17.5,25.68 L15,25.68 L15,24 L17.5,24 L17.5,21.5 L19.18,21.5 L19.18,24 Z M26.68,25.68 C26.079997,25.68 25.5266692,25.5300015 25.02,25.23 C24.5133308,24.9299985 24.1100015,24.5266692 23.81,24.02 C23.5099985,23.5133308 23.36,22.960003 23.36,22.36 C23.36,21.759997 23.5099985,21.2000026 23.81,20.68 C24.1100015,20.1599974 24.5133308,19.7500015 25.02,19.45 C25.5266692,19.1499985 26.079997,19 26.68,19 C27.280003,19 27.8333308,19.1499985 28.34,19.45 C28.8466692,19.7500015 29.2499985,20.1599974 29.55,20.68 C29.8500015,21.2000026 30,21.759997 30,22.36 C30,22.960003 29.8500015,23.5133308 29.55,24.02 C29.2499985,24.5266692 28.8466692,24.9299985 28.34,25.23 C27.8333308,25.5300015 27.280003,25.68 26.68,25.68 Z" id="person_add---material"></path>
                        </g>
                    </g>
                </g>
            </g>
        </g>
    </g>
</svg>